<?xml version="1.0" encoding="utf-8"?>
<!-- Generator: Adobe Illustrator 27.2.0, SVG Export Plug-In . SVG Version: 6.00 Build 0)  -->
<svg version="1.1" id="Layer_1" xmlns="http://www.w3.org/2000/svg"
	xmlns:xlink="http://www.w3.org/1999/xlink" x="0px" y="0px"
	viewBox="0 0 36 36" style="enable-background:new 0 0 36 36;" xml:space="preserve">

<path class="fill-purple" d="M35.8,8.2L26.1,18l9.8,9.8c0-0.3,0.2-0.4,0.2-0.8V9C36,8.7,36,8.5,35.8,8.2z M22.1,17.8L33.8,6.1
	C33.4,6,33.3,6,33,6H3C2.7,6,2.5,6,2.2,6.2L14,17.9C16.2,20.1,19.8,20.1,22.1,17.8z M18,22.5c-2.1,0-4.3-0.8-6-2.4l-9.8,9.8
	C2.5,30,2.7,30,3,30h30c0.3,0,0.4,0,0.8-0.2L24,20.1C22.3,21.8,20.1,22.5,18,22.5z M0.1,8.2C0,8.5,0,8.7,0,9v18c0,0.3,0,0.4,0.1,0.8
	L9.9,18L0.1,8.2z"/>
</svg>