<?xml version="1.0" encoding="utf-8"?>
<!-- Generator: Adobe Illustrator 27.2.0, SVG Export Plug-In . SVG Version: 6.00 Build 0)  -->
<svg version="1.1" id="Layer_1" xmlns="http://www.w3.org/2000/svg" xmlns:xlink="http://www.w3.org/1999/xlink" x="0px" y="0px"
	 viewBox="0 0 428.7 320.8" style="enable-background:new 0 0 428.7 320.8;" xml:space="preserve">
<style type="text/css">
	.st0{fill:#7E30E1;}
</style>
<path class="st0" d="M418.7,0H10C4.5,0,0,4.5,0,10v300.8c0,5.5,4.5,10,10,10h408.7c5.5,0,10-4.5,10-10V10C428.7,4.5,424.2,0,418.7,0
	z M233.7,185.6c-4.3,4.3-10.7,6.8-17.6,6.8c-7,0-13.5-2.5-17.8-6.9L34.9,20h363.2L233.7,185.6z M144.3,159.3L20,285.4V33.3
	L144.3,159.3z M158.4,173.6l25.6,26c8.1,8.1,19.7,12.8,32,12.8c12.2,0,23.8-4.6,31.8-12.7l24.3-24.5l123.7,125.6H32.9L158.4,173.6z
	 M286.3,161L408.7,37.8v247.6L286.3,161z"/>
</svg>
