<svg id="visual" viewBox="0 0 900 300" width="900" height="300" xmlns="http://www.w3.org/2000/svg" xmlns:xlink="http://www.w3.org/1999/xlink" version="1.1"><path d="M0 105L21.5 111.8C43 118.7 86 132.3 128.8 130.8C171.7 129.3 214.3 112.7 257.2 106C300 99.3 343 102.7 385.8 95.8C428.7 89 471.3 72 514.2 76.2C557 80.3 600 105.7 642.8 114C685.7 122.3 728.3 113.7 771.2 101.7C814 89.7 857 74.3 878.5 66.7L900 59L900 301L878.5 301C857 301 814 301 771.2 301C728.3 301 685.7 301 642.8 301C600 301 557 301 514.2 301C471.3 301 428.7 301 385.8 301C343 301 300 301 257.2 301C214.3 301 171.7 301 128.8 301C86 301 43 301 21.5 301L0 301Z" fill="#f3f8ff"></path><path d="M0 126L21.5 121.5C43 117 86 108 128.8 116.8C171.7 125.7 214.3 152.3 257.2 157.8C300 163.3 343 147.7 385.8 136.7C428.7 125.7 471.3 119.3 514.2 123.8C557 128.3 600 143.7 642.8 146.2C685.7 148.7 728.3 138.3 771.2 132.2C814 126 857 124 878.5 123L900 122L900 301L878.5 301C857 301 814 301 771.2 301C728.3 301 685.7 301 642.8 301C600 301 557 301 514.2 301C471.3 301 428.7 301 385.8 301C343 301 300 301 257.2 301C214.3 301 171.7 301 128.8 301C86 301 43 301 21.5 301L0 301Z" fill="#d3dfff"></path><path d="M0 195L21.5 190.3C43 185.7 86 176.3 128.8 178.5C171.7 180.7 214.3 194.3 257.2 196.2C300 198 343 188 385.8 180.2C428.7 172.3 471.3 166.7 514.2 164.8C557 163 600 165 642.8 165.8C685.7 166.7 728.3 166.3 771.2 163.3C814 160.3 857 154.7 878.5 151.8L900 149L900 301L878.5 301C857 301 814 301 771.2 301C728.3 301 685.7 301 642.8 301C600 301 557 301 514.2 301C471.3 301 428.7 301 385.8 301C343 301 300 301 257.2 301C214.3 301 171.7 301 128.8 301C86 301 43 301 21.5 301L0 301Z" fill="#c5c1ff"></path><path d="M0 205L21.5 211.3C43 217.7 86 230.3 128.8 233.8C171.7 237.3 214.3 231.7 257.2 223C300 214.3 343 202.7 385.8 200.3C428.7 198 471.3 205 514.2 211.2C557 217.3 600 222.7 642.8 225.7C685.7 228.7 728.3 229.3 771.2 222.8C814 216.3 857 202.7 878.5 195.8L900 189L900 301L878.5 301C857 301 814 301 771.2 301C728.3 301 685.7 301 642.8 301C600 301 557 301 514.2 301C471.3 301 428.7 301 385.8 301C343 301 300 301 257.2 301C214.3 301 171.7 301 128.8 301C86 301 43 301 21.5 301L0 301Z" fill="#cc9dfb"></path><path d="M0 245L21.5 241.5C43 238 86 231 128.8 228.5C171.7 226 214.3 228 257.2 229.7C300 231.3 343 232.7 385.8 236.2C428.7 239.7 471.3 245.3 514.2 245C557 244.7 600 238.3 642.8 240C685.7 241.7 728.3 251.3 771.2 254.5C814 257.7 857 254.3 878.5 252.7L900 251L900 301L878.5 301C857 301 814 301 771.2 301C728.3 301 685.7 301 642.8 301C600 301 557 301 514.2 301C471.3 301 428.7 301 385.8 301C343 301 300 301 257.2 301C214.3 301 171.7 301 128.8 301C86 301 43 301 21.5 301L0 301Z" fill="#e26ee5"></path></svg>