<?xml version="1.0" encoding="utf-8"?>
<!-- Generator: Adobe Illustrator 27.2.0, SVG Export Plug-In . SVG Version: 6.00 Build 0)  -->
<svg version="1.1" id="visual" xmlns="http://www.w3.org/2000/svg" xmlns:xlink="http://www.w3.org/1999/xlink" x="0px" y="0px"
	 viewBox="0 0 900 203" style="enable-background:new 0 0 900 203;" xml:space="preserve">
<style type="text/css">
	.st0{fill:#D8E4FF;}
	.st1{fill:#C8CDFF;}
	.st2{fill:#C5B4FF;}
	.st3{fill:#CF95F8;}
	.st4{fill:#E26EE5;}
</style>
<path class="st0" d="M0,5l21.5,6.2C43,17.3,86,29.7,128.8,34.2c42.9,4.5,85.5,1.1,128.4,2C300,37,343,42,385.8,41.3
	c42.9-0.6,85.5-7,128.4-5.5c42.8,1.5,85.8,10.9,128.6,9.4c42.9-1.5,85.5-13.9,128.4-23.2C814,12.7,857,6.3,878.5,3.2L900,0v204
	h-21.5c-21.5,0-64.5,0-107.3,0c-42.9,0-85.5,0-128.4,0c-42.8,0-85.8,0-128.6,0c-42.9,0-85.5,0-128.4,0c-42.8,0-85.8,0-128.6,0
	c-42.9,0-85.5,0-128.4,0c-42.8,0-85.8,0-107.3,0H0V5z"/>
<path class="st1" d="M0,79l21.5,0.3C43,79.7,86,80.3,128.8,80c42.9-0.3,85.5-1.7,128.4-9C300,63.7,343,50.3,385.8,52.7
	C428.7,55,471.3,73,514.2,79.5C557,86,600,81,642.8,71.5C685.7,62,728.3,48,771.2,51.3c42.8,3.4,85.8,24,107.3,34.4L900,96v108
	h-21.5c-21.5,0-64.5,0-107.3,0c-42.9,0-85.5,0-128.4,0c-42.8,0-85.8,0-128.6,0c-42.9,0-85.5,0-128.4,0c-42.8,0-85.8,0-128.6,0
	c-42.9,0-85.5,0-128.4,0c-42.8,0-85.8,0-107.3,0H0V79z"/>
<path class="st2" d="M0,127l21.5-9.3C43,108.3,86,89.7,128.8,86c42.9-3.7,85.5,7.7,128.4,10c42.8,2.3,85.8-4.3,128.6-6.5
	c42.9-2.2,85.5,0.2,128.4-3c42.8-3.2,85.8-11.8,128.6-8c42.9,3.8,85.5,20.2,128.4,23.7c42.8,3.5,85.8-5.9,107.3-10.5L900,87v117
	h-21.5c-21.5,0-64.5,0-107.3,0c-42.9,0-85.5,0-128.4,0c-42.8,0-85.8,0-128.6,0c-42.9,0-85.5,0-128.4,0c-42.8,0-85.8,0-128.6,0
	c-42.9,0-85.5,0-128.4,0c-42.8,0-85.8,0-107.3,0H0V127z"/>
<path class="st3" d="M0,115l21.5,4.5C43,124,86,133,128.8,135.2c42.9,2.1,85.5-2.5,128.4-7.4C300,123,343,118,385.8,114.2
	c42.9-3.9,85.5-6.5,128.4-0.4C557,120,600,135,642.8,137.5c42.9,2.5,85.5-7.5,128.4-13.3c42.8-5.9,85.8-7.5,107.3-8.4L900,115v89
	h-21.5c-21.5,0-64.5,0-107.3,0c-42.9,0-85.5,0-128.4,0c-42.8,0-85.8,0-128.6,0c-42.9,0-85.5,0-128.4,0c-42.8,0-85.8,0-128.6,0
	c-42.9,0-85.5,0-128.4,0c-42.8,0-85.8,0-107.3,0H0V115z"/>
<path class="st4" d="M0,153l21.5,1c21.5,1,64.5,3,107.3,6.5c42.9,3.5,85.5,8.5,128.4,6.2c42.8-2.4,85.8-12,128.6-18
	c42.9-6,85.5-8.4,128.4-8.4c42.8,0,85.8,2.4,128.6,8.5c42.9,6.2,85.5,16.2,128.4,16.9c42.8,0.6,85.8-8,107.3-12.4L900,149v55h-21.5
	c-21.5,0-64.5,0-107.3,0c-42.9,0-85.5,0-128.4,0c-42.8,0-85.8,0-128.6,0c-42.9,0-85.5,0-128.4,0c-42.8,0-85.8,0-128.6,0
	c-42.9,0-85.5,0-128.4,0c-42.8,0-85.8,0-107.3,0H0V153z"/>
</svg>
