<svg id="visual" viewBox="0 0 1350 450" width="1350" height="450" xmlns="http://www.w3.org/2000/svg"
    xmlns:xlink="http://www.w3.org/1999/xlink" version="1.1">
    <path
        d="M0 306L32.2 313.5C64.3 321 128.7 336 193 339.3C257.3 342.7 321.7 334.3 386 318.5C450.3 302.7 514.7 279.3 578.8 265.7C643 252 707 248 771.2 261C835.3 274 899.7 304 964 315C1028.3 326 1092.7 318 1157 309.3C1221.3 300.7 1285.7 291.3 1317.8 286.7L1350 282L1350 0L1317.8 0C1285.7 0 1221.3 0 1157 0C1092.7 0 1028.3 0 964 0C899.7 0 835.3 0 771.2 0C707 0 643 0 578.8 0C514.7 0 450.3 0 386 0C321.7 0 257.3 0 193 0C128.7 0 64.3 0 32.2 0L0 0Z"
        fill="#f3f8ff"></path>
    <path
        d="M0 281L32.2 273C64.3 265 128.7 249 193 246.2C257.3 243.3 321.7 253.7 386 263C450.3 272.3 514.7 280.7 578.8 276.8C643 273 707 257 771.2 251C835.3 245 899.7 249 964 243.2C1028.3 237.3 1092.7 221.7 1157 222.3C1221.3 223 1285.7 240 1317.8 248.5L1350 257L1350 0L1317.8 0C1285.7 0 1221.3 0 1157 0C1092.7 0 1028.3 0 964 0C899.7 0 835.3 0 771.2 0C707 0 643 0 578.8 0C514.7 0 450.3 0 386 0C321.7 0 257.3 0 193 0C128.7 0 64.3 0 32.2 0L0 0Z"
        fill="#d3dfff"></path>
    <path
        d="M0 166L32.2 172.8C64.3 179.7 128.7 193.3 193 192.5C257.3 191.7 321.7 176.3 386 165.8C450.3 155.3 514.7 149.7 578.8 154C643 158.3 707 172.7 771.2 180.2C835.3 187.7 899.7 188.3 964 189.5C1028.3 190.7 1092.7 192.3 1157 188.2C1221.3 184 1285.7 174 1317.8 169L1350 164L1350 0L1317.8 0C1285.7 0 1221.3 0 1157 0C1092.7 0 1028.3 0 964 0C899.7 0 835.3 0 771.2 0C707 0 643 0 578.8 0C514.7 0 450.3 0 386 0C321.7 0 257.3 0 193 0C128.7 0 64.3 0 32.2 0L0 0Z"
        fill="#c5c1ff"></path>
    <path
        d="M0 140L32.2 133.3C64.3 126.7 128.7 113.3 193 111.5C257.3 109.7 321.7 119.3 386 123.7C450.3 128 514.7 127 578.8 129.7C643 132.3 707 138.7 771.2 134.3C835.3 130 899.7 115 964 117.3C1028.3 119.7 1092.7 139.3 1157 139.2C1221.3 139 1285.7 119 1317.8 109L1350 99L1350 0L1317.8 0C1285.7 0 1221.3 0 1157 0C1092.7 0 1028.3 0 964 0C899.7 0 835.3 0 771.2 0C707 0 643 0 578.8 0C514.7 0 450.3 0 386 0C321.7 0 257.3 0 193 0C128.7 0 64.3 0 32.2 0L0 0Z"
        fill="#cc9dfb"></path>
    <path
        d="M0 110L32.2 101C64.3 92 128.7 74 193 68.7C257.3 63.3 321.7 70.7 386 73.2C450.3 75.7 514.7 73.3 578.8 71C643 68.7 707 66.3 771.2 68.5C835.3 70.7 899.7 77.3 964 75.2C1028.3 73 1092.7 62 1157 59.8C1221.3 57.7 1285.7 64.3 1317.8 67.7L1350 71L1350 0L1317.8 0C1285.7 0 1221.3 0 1157 0C1092.7 0 1028.3 0 964 0C899.7 0 835.3 0 771.2 0C707 0 643 0 578.8 0C514.7 0 450.3 0 386 0C321.7 0 257.3 0 193 0C128.7 0 64.3 0 32.2 0L0 0Z"
        fill="#e26ee5"></path>
</svg>