<?xml version="1.0" encoding="utf-8"?>
<!-- Generator: Adobe Illustrator 27.2.0, SVG Export Plug-In . SVG Version: 6.00 Build 0)  -->
<svg version="1.1" id="Layer_1" xmlns="http://www.w3.org/2000/svg" xmlns:xlink="http://www.w3.org/1999/xlink" x="0px" y="0px"
	 viewBox="0 0 128 128" style="enable-background:new 0 0 128 128;" xml:space="preserve">
<style type="text/css">
	.st0{fill:url(#SVGID_1_);}
</style>
<linearGradient id="SVGID_1_" gradientUnits="userSpaceOnUse" x1="578.0602" y1="342.5331" x2="542.2062" y2="291.8071" gradientTransform="matrix(0.563 0 0 0.568 -236.79 -100.563)">
	<stop  offset="0" style="stop-color:#FFD43B"/>
	<stop  offset="1" style="stop-color:#FFE873"/>
</linearGradient>
<path class="st0" d="M91.7,38.6v11c0,8.5-7.2,15.7-15.4,15.7H51.6c-6.8,0-12.3,5.8-12.3,12.5v23.5c0,6.7,5.8,10.6,12.3,12.5
	c7.8,2.3,15.3,2.7,24.7,0c6.2-1.8,12.3-5.4,12.3-12.5v-9.4H63.9v-3.1h37c7.2,0,9.9-5,12.3-12.5c2.6-7.7,2.5-15.2,0-25.1
	c-1.8-7.1-5.2-12.5-12.3-12.5L91.7,38.6L91.7,38.6z M77.8,98.2c2.6,0,4.6,2.1,4.6,4.7c0,2.6-2.1,4.7-4.6,4.7c-2.6,0-4.6-2.1-4.6-4.7
	C73.2,100.3,75.3,98.2,77.8,98.2z"/>
</svg>
