<?xml version="1.0" encoding="utf-8"?>
<!-- Generator: Adobe Illustrator 27.2.0, SVG Export Plug-In . SVG Version: 6.00 Build 0)  -->
<svg version="1.1" id="Layer_1" xmlns="http://www.w3.org/2000/svg" xmlns:xlink="http://www.w3.org/1999/xlink" x="0px" y="0px"
	 viewBox="0 0 128 128" style="enable-background:new 0 0 128 128;" xml:space="preserve">
<style type="text/css">
	.st0{fill:url(#SVGID_1_);}
</style>
<linearGradient id="SVGID_1_" gradientUnits="userSpaceOnUse" x1="438.891" y1="203.8561" x2="539.298" y2="290.2431" gradientTransform="matrix(0.563 0 0 0.568 -236.79 -100.563)">
	<stop  offset="0" style="stop-color:#5A9FD4"/>
	<stop  offset="1" style="stop-color:#306998"/>
</linearGradient>
<path class="st0" d="M63.4,12.2c-4.2,0-8.3,0.4-11.8,1C41.1,15.1,39.2,19,39.2,26.1v9.4h24.7v3.1H30c-7.2,0-13.5,4.3-15.4,12.5
	c-2.3,9.4-2.4,15.3,0,25.1c1.8,7.3,5.9,12.5,13.1,12.5h8.5V77.5c0-8.2,7.1-15.3,15.4-15.3h24.7c6.9,0,12.3-5.7,12.3-12.5V26.1
	c0-6.7-5.6-11.7-12.3-12.8C72,12.6,67.6,12.2,63.4,12.2z M50,19.8c2.5,0,4.6,2.1,4.6,4.7c0,2.6-2.1,4.7-4.6,4.7
	c-2.6,0-4.6-2.1-4.6-4.7C45.4,21.9,47.5,19.8,50,19.8z"/>
</svg>
