<?xml version="1.0" encoding="utf-8"?>
<!-- Generator: Adobe Illustrator 27.2.0, SVG Export Plug-In . SVG Version: 6.00 Build 0)  -->
<svg version="1.1" id="Layer_1" xmlns="http://www.w3.org/2000/svg" xmlns:xlink="http://www.w3.org/1999/xlink" x="0px" y="0px"
	 viewBox="0 0 128 128" style="enable-background:new 0 0 128 128;" xml:space="preserve">
<style type="text/css">
	.st0{fill:#61DAFB;}
</style>
<circle class="st0" cx="64" cy="64" r="11.4"/>
<path class="st0" d="M107.3,45.2c-2.2-0.8-4.5-1.6-6.9-2.3l-7.2,4.2c0.1,0,0.1,0,0.2,0c-1.1,3.3-2.3,6.8-3.8,10.3
	c-1.1-2.1-2.2-4.2-3.4-6.2l0,0L81.3,54c0,0,0,0,0,0c1.9,3.3,3.7,6.7,5.3,10c-1.7,3.3-3.4,6.6-5.3,10c-1.8,3.2-3.9,6.4-6.1,9.6
	C71.5,83.9,67.8,84,64,84c-3.9,0-7.6-0.1-11.2-0.4c-2.2-3.2-4.2-6.4-6-9.6c0,0,0,0,0,0l-4.9,2.9c1.2,2.1,2.3,4,3.5,6
	c-3.7-0.5-7.3-1.1-10.6-1.9l-7.2,4.2c-0.6,2.4-1.1,4.8-1.5,7.1c-2.1,13.2,0.2,22.5,6.6,26.1c1.9,1.1,4,1.6,6.4,1.6
	c7.1,0,16-5.2,24.9-13.9c9,8.7,17.9,13.9,24.9,13.9c2.4,0,4.5-0.5,6.4-1.6c6.4-3.7,8.7-13,6.6-26.1c-0.4-2.3-0.9-4.7-1.5-7.1
	c2.4-0.7,4.7-1.4,6.9-2.3c12.5-4.8,19.3-11.4,19.3-18.8S119.8,50,107.3,45.2z M86.2,76.9c1.2-2.1,2.3-4.2,3.4-6.2
	c1.5,3.5,2.7,6.9,3.8,10.3c-3.4,0.8-7,1.4-10.8,1.9C83.8,81,85.1,79,86.2,76.9z M39,114.2c-1.3,0-2.5-0.3-3.5-0.9
	c-4.1-2.4-5.5-9.8-3.8-20.3c0.3-2.1,0.8-4.3,1.4-6.6c5.2,1.2,10.7,2,16.5,2.5c3.4,4.8,6.9,9.1,10.4,13
	C52.6,109.2,45.1,114.2,39,114.2z M57.1,89.5c2.3,0.1,4.6,0.2,6.9,0.2s4.6-0.1,6.9-0.2c-2.2,2.9-4.5,5.7-6.9,8.3
	C61.6,95.2,59.3,92.4,57.1,89.5z M92.5,113.3c-1,0.6-2.2,0.9-3.5,0.9c-6,0-13.5-4.9-21-12.3c3.5-3.8,7-8.2,10.4-13
	c5.8-0.5,11.3-1.4,16.5-2.5c0.6,2.3,1,4.5,1.4,6.6C98,103.5,96.6,110.9,92.5,113.3z M105.3,77.4c-2,0.8-4.2,1.5-6.4,2.1
	c-1.6-5-3.6-10.3-6-15.6c2.4-5.3,4.5-10.5,6-15.5c13.8,4,22.1,10,22.1,15.6C121,68.7,115.2,73.7,105.3,77.4z"/>
<path class="st0" d="M27.6,85.1"/>
</svg>
