<?xml version="1.0" encoding="utf-8"?>
<!-- Generator: Adobe Illustrator 27.2.0, SVG Export Plug-In . SVG Version: 6.00 Build 0)  -->
<svg version="1.1" id="Layer_1" xmlns="http://www.w3.org/2000/svg" xmlns:xlink="http://www.w3.org/1999/xlink" x="0px" y="0px"
	 viewBox="0 0 128 128" style="enable-background:new 0 0 128 128;" xml:space="preserve">
<style type="text/css">
	.st0{fill:#61DAFB;}
</style>
<path class="st0" d="M95.3,9.7c-1.9-1.1-4-1.6-6.4-1.6C81.9,8.1,73,13.3,64,22C55,13.3,46.1,8.1,39.1,8.1c-2.4,0-4.5,0.5-6.4,1.6
	c-6.4,3.7-8.7,13-6.6,26.1c0.4,2.3,0.9,4.7,1.5,7.1c-2.4,0.7-4.7,1.4-6.9,2.3C8.2,50,1.4,56.6,1.4,64s6.9,14,19.3,18.8
	c2.2,0.8,4.5,1.6,6.9,2.3l7.2-4.2c-0.1,0-0.1,0-0.2,0c1.1-3.3,2.3-6.8,3.8-10.3c1.1,2,2.2,4.1,3.4,6.1c0,0,0,0.1,0.1,0.1l4.9-2.9
	c-1.9-3.3-3.7-6.7-5.3-10c1.6-3.3,3.4-6.7,5.3-10c1.8-3.2,3.9-6.4,6.1-9.6c3.7-0.3,7.4-0.4,11.2-0.4c3.9,0,7.6,0.1,11.2,0.4
	c2.2,3.2,4.2,6.4,6,9.6l4.9-2.8l-3.6-6c3.7,0.5,7.3,1.1,10.6,1.9l7.2-4.2c0.6-2.4,1.1-4.8,1.5-7.1C104,22.6,101.7,13.3,95.3,9.7z
	 M29.1,79.6C15.3,75.6,7,69.6,7,64c0-4.7,5.7-9.7,15.7-13.4c2-0.8,4.2-1.5,6.4-2.1c1.6,5,3.6,10.3,6,15.6
	C32.7,69.4,30.6,74.6,29.1,79.6z M41.8,51.1c-1.2,2.1-2.3,4.2-3.4,6.2c-1.5-3.5-2.7-6.9-3.8-10.3c3.4-0.8,7-1.4,10.8-1.9
	C44.2,47,42.9,49,41.8,51.1z M49.6,39.1c-5.8,0.5-11.3,1.4-16.5,2.5c-0.6-2.3-1-4.5-1.4-6.6c-1.7-10.5-0.3-17.9,3.8-20.3
	c1-0.6,2.2-0.9,3.5-0.9c6,0,13.5,4.9,21,12.3C56.5,29.9,53,34.3,49.6,39.1z M64,38.3c-2.3,0-4.6,0.1-6.9,0.2
	c2.2-2.9,4.5-5.7,6.9-8.3c2.4,2.6,4.7,5.4,6.9,8.3C68.6,38.4,66.3,38.3,64,38.3z M96.3,35c-0.3,2.1-0.8,4.3-1.4,6.6
	c-5.2-1.2-10.7-2-16.5-2.5C75,34.3,71.5,30,68,26.1c7.4-7.3,14.9-12.3,21-12.3c1.3,0,2.5,0.3,3.5,0.9C96.6,17.1,98,24.5,96.3,35z"/>
<path class="st0" d="M27.6,85.1"/>
</svg>
